<?xml version="1.0" encoding="UTF-8"?><svg id="Layer_1" xmlns="http://www.w3.org/2000/svg" viewBox="0 0 441.26 55"><defs><style>.cls-1{fill:#fff;}</style></defs><polygon class="cls-1" points="24.51 18.58 76.26 18.58 76.25 0 100.78 0 100.76 54.99 76.26 54.99 76.26 33.22 24.51 33.22 24.51 54.99 .03 54.99 0 0 24.51 0 24.51 18.58 24.51 18.58"/><path class="cls-1" d="m437.52,11.75C433.34,3.24,424.5.03,416.2.03h-83.03l-.02,52.96L294.62.03l-42.12.03-38.51,52.9v-10.52s-76,0-76,0v-8.67h76.02v-12.54h-76.02v-8.67h76s.01-12.54.01-12.54h-100.52v54.95h126.92s6.52-8.9,6.52-8.9h53.37l6.49,8.91h109.46c8.3,0,17.14-3.22,21.32-11.72,4.77-9.71,5.1-22.27-.04-31.52Zm-181.62,21.88l14.3-19.61h6.73l14.28,19.61h-35.31Zm160.62.95c-1.34,2.55-4.1,3.25-6.48,3.25h-52.26v-20.52h52.23c2.38,0,5.14.7,6.49,3.25,2.21,4.38,2.24,9.81.03,14.02Z"/></svg>