<?xml version="1.0" encoding="UTF-8"?><svg id="Layer_1" xmlns="http://www.w3.org/2000/svg" viewBox="0 0 290.94 55"><defs><style>.cls-1{fill:#fff;fill-rule:evenodd;}</style></defs><path class="cls-1" d="m15.48,24.09c8.51,0,15.43,6.97,15.43,15.48s-6.92,15.43-15.43,15.43S0,48.08,0,39.57s6.97-15.48,15.48-15.48h0Zm45.07,0c8.51,0,15.43,6.97,15.43,15.48s-6.92,15.43-15.43,15.43-15.48-6.92-15.48-15.43,6.97-15.48,15.48-15.48h0ZM13.2,1.23h45.07l-23.49,38.34c-.23-18.17-7.74-30.6-21.58-38.34h0Zm45.07,0h45.07l-23.49,38.34c-.18-18.17-7.74-30.6-21.58-38.34h0Z"/><path class="cls-1" d="m253.92,53.22h10.61l7.74-17.35,7.65,17.35h11.02l-12.98-26.54,12.61-25.45h-10.88l-7.15,16.39-6.97-16.39h-11.06l12.25,25.45-12.84,26.54h0Zm-28.32,0h27.36v-8.79h-17.67v-14.3h16.07v-8.24h-16.07v-12.02h17.26V1.23h-26.95v52h0Zm-38.15,0h9.2l-.27-32.87,13.8,32.87h9.97V1.23h-9.2l.27,32.78L197.51,1.23h-10.06v52h0Zm-28.05-26c0-13.57.27-19.58,7.06-19.58s7.06,6.01,7.06,19.58-.27,19.49-6.97,19.49-7.15-5.96-7.15-19.49h0Zm-9.97,0c0,10.2.82,17.07,3.19,20.67,3.23,4.87,7.19,6.56,13.84,6.56s10.61-1.68,13.84-6.56c2.37-3.69,3.23-10.52,3.23-20.67s-.86-17.03-3.23-20.67c-3.23-4.92-7.19-6.56-13.84-6.56s-10.61,1.64-13.84,6.56c-2.37,3.6-3.19,10.43-3.19,20.67h0Zm-22.17,26h9.83v-22.08l13.57-29.91h-10.56l-7.83,19.58-7.97-19.58h-10.84l13.8,29.91v22.08h0Z"/></svg>