<?xml version="1.0" encoding="UTF-8"?><svg id="Layer_1" xmlns="http://www.w3.org/2000/svg" viewBox="0 0 219.79 55"><defs><style>.cls-1{fill:#fff;fill-rule:evenodd;}</style></defs><path class="cls-1" d="m5.62,10.85l.08,29.16h0c0,2.72,1.21,5.35,2.37,7.34,1.16,2,2.6,3.34,4.41,4.54,1.81,1.2,3.98,2.24,6.46,2.76,2.48.52,5.27.51,8.02-.43,2.75-.94,5.47-2.83,7.54-5.22,2.51,2.72,5.92,4.67,9.38,5.3,3.46.63,6.97-.07,9.88-1.54,2.91-1.47,5.21-3.71,6.99-6.9,1.79-3.19,3.06-7.33,3.62-11.53.57-4.2.43-8.46.11-12.51-.32-4.05-.83-7.89-1.33-11.02-.5-3.13-.98-5.55-1.58-7.93h0l-16.67-.04v8.03h5.91c1.07,3.29,1.78,6.7,2.14,10.39.37,3.69.39,7.67.04,10.82-.35,3.14-1.07,5.45-2.03,7.21-.96,1.76-2.15,2.97-3.36,3.56-1.21.59-2.45.56-3.41.16-.95-.4-1.62-1.16-2.06-2.14-.44-.98-.59-2.16-.59-3.32h0V2.81h-18.97l-.07,8.04h5.91l.04,27.33h0c0,.95.05,1.93-.5,2.81-.54.89-1.47,1.66-2.47,2.01-1,.36-2.06.3-3.01.13-.95-.17-1.8-.47-2.52-1.24-.71-.77-1.5-1.99-1.5-3.27h0V2.65H0l.13,8.2h5.49Zm65.58,4.33c.92,1.36,2.75,2.3,4.55,2.7,1.79.41,3.54.28,5.06-.21,1.52-.49,2.81-1.35,3.69-2.36.89-1.01,1.37-2.17,1.22-3.37-.15-1.2-.93-2.43-1.95-3.4-1.01-.98-2.25-1.7-3.96-2-1.7-.3-3.87-.18-5.54.5-1.67.68-2.83,1.93-3.42,3.46-.58,1.52-.58,3.32.34,4.68h0Zm57.03,27.98c-.84.94-1.98,1.24-3.17,1-1.19-.24-2.42-1.01-3.27-2.04h0l3.95-8.38h0c1.72,1.34,3.06,3.33,3.46,5.11.4,1.79-.13,3.37-.97,4.31h0ZM94.53,6.54c-.93,1.75-1.47,3.66-1.47,5.58h0v24.93h0c-2.15,2.85-4.29,5.71-5.77,6.27-1.48.56-3.1-.98-3.1-2.89h0v-20.28h-15.21v6.34h2.53v14.37h0c0,2.61,0,5.28.5,7.26.51,1.98,1.31,3.25,2.91,4.27,1.6,1.02,3.99,1.79,6.39,1.56,2.4-.23,4.81-1.47,6.8-2.84,1.99-1.37,3.55-2.86,4.79-4.59.74,1.58,1.85,2.98,3.49,4.31,1.64,1.33,3.8,2.58,6.34,2.91,2.54.33,5.44-.26,7.99-1.44,2.55-1.18,4.75-2.93,6.41-5.1,3.18,3.03,7.21,5.35,10.61,6.27,3.4.92,6.19.45,8.69-1.42,2.5-1.87,4.72-5.14,5.36-8.48.64-3.34-.3-6.76-1.84-9.59-1.54-2.83-3.69-5.07-5.18-7.27-1.49-2.21-2.33-4.38-2.82-6.64h-9.73c-.83,5.16-2.42,10.23-4.27,14.12-1.85,3.89-3.95,6.6-6.49,8.05-2.54,1.45-5.5,1.66-6.5.49-.99-1.17-.01-3.71,1.45-6.25,1.46-2.54,3.4-5.08,5.28-8.19,1.88-3.11,3.7-6.78,4.83-10.45,1.13-3.67,1.58-7.35.86-10.14-.72-2.79-2.62-4.7-4.67-5.94-2.05-1.25-4.24-1.83-6.7-1.74-2.46.09-5.18.86-7.21,2.03-2.03,1.17-3.38,2.75-4.31,4.5h0Zm11.76,17.42c-.49.66-1,1.29-1.29.82-.29-.46-.11-1.99-.11-2.94h0v-9.72h0c0-.87-.08-1.82.49-2.52.57-.7,1.54-1.13,2.51-1.14.97,0,1.93.41,2.46,1.27.52.86.61,2.15.39,3.58-.22,1.43-.75,2.99-1.3,4.45-.56,1.46-1.14,2.82-1.67,3.84-.53,1.02-.99,1.7-1.48,2.36h0Zm84.23-3.74c-2.29-.78-4.98-.71-6.92-.13-1.94.57-3.12,1.64-4.42,2.79-1.3,1.15-2.71,2.37-4.07,3.65-1.19-2.15-3.01-3.95-5.46-5.21-2.45-1.26-5.53-1.99-8.4-1.98-2.87.01-5.53.77-8.16,2.2-2.63,1.43-5.23,3.54-6.91,6.69-1.68,3.15-2.44,7.34-1.92,11.05.52,3.71,2.32,6.95,4.25,9.16,1.93,2.22,3.99,3.42,6.15,4.3,2.17.89,4.44,1.46,6.92,1.47,2.48,0,5.15-.55,7.58-1.9,2.43-1.35,4.61-3.48,6.18-5.94,1.57-2.46,2.54-5.25,3.05-7.62.51-2.37.57-4.33.26-6.23,1.22-.7,2.45-1.39,3.17-.92.73.47,1.19,2.1,1.19,3.75h0v18.17h11.83v-18.17h0c0-1.32.1-2.72.89-3.75.79-1.03,2.06-1.67,3.34-1.67,1.27,0,2.55.64,3.32,1.67.77,1.04.75,2.44.75,3.75h0v10.45h0c0,1.97.02,3.94,1.03,5.22,1.01,1.29,2.93,2.49,5.03,2.49h10.56l-.02-5.42h0c-1.44.13-2.89.26-3.5-.72-.61-.99-.19-3.08-.19-5.2h0v-12.42h0c0-2.86-1.25-5.73-2.78-7.65-1.53-1.92-3.52-2.88-5.7-3.1-2.18-.22-4.56.32-6.63,1.33-2.07,1.01-3.84,2.51-5.15,4.33-1.13-2.04-3-3.68-5.29-4.47h0Zm-33.11,22.91c-.64-1.69-.36-4.06-.35-6.38,0-2.32-.28-4.57.41-6.38.69-1.82,2.36-3.2,4.02-3.2,1.66,0,3.32,1.38,4.03,3.19.7,1.81.45,4.04.46,6.33.01,2.29.29,4.63-.46,6.33-.75,1.7-2.53,2.74-4.2,2.77-1.68.03-3.26-.97-3.9-2.66h0Z"/></svg>