<?xml version="1.0" encoding="UTF-8"?><svg id="Layer_1" xmlns="http://www.w3.org/2000/svg" viewBox="0 0 351.92 55"><defs><style>.cls-1{fill:#fff;}</style></defs><path class="cls-1" d="m0,55h66.93c5.31,0,10.18-2.97,12.6-7.7l9.66-18.84H27.63L0,55h0Z"/><path class="cls-1" d="m65.48,0c-5.03,0-9.87,1.95-13.49,5.45l-14.38,13.89h55.75L102.88,0h-37.39Z"/><path class="cls-1" d="m351.85,10c-.06-.08-.15-.12-.25-.12h-29.27c-.15,0-.28.1-.31.25l-1.73,7.25c-.02.1,0,.2.06.27s.15.12.25.12h5.99l-6.52,27.38c-.02.1,0,.2.06.27.06.08.15.12.25.12h10.84c.15,0,.28-.1.31-.25l6.55-27.53h11.78c.15,0,.28-.1.31-.25l1.73-7.25c.02-.1,0-.2-.06-.27h0Z"/><path class="cls-1" d="m285.62,10c-.06-.08-.15-.12-.25-.12h-10.83c-.15,0-.28.1-.31.25l-8.33,35.03c-.02.1,0,.2.06.27.06.08.15.12.25.12h10.83c.15,0,.28-.1.31-.25l8.33-35.03c.02-.1,0-.2-.06-.27h0Z"/><path class="cls-1" d="m308.41,38.6h-12.35c-2.29,0-3.63-.3-4.11-.91-.2-.26-.24-.59-.13-1.01.48-1.85,1.89-2.11,3.88-2.11.35,0,.73,0,1.12.02.4,0,.81.02,1.23.02h11.32l-.95,3.99h0Zm13.18-18.13c-1.88-2.38-5.09-3.75-8.82-3.75h-25.04c-.15,0-.28.1-.31.24l-1.52,6.17c-.02.1,0,.2.06.27.06.08.15.12.25.12h21.25c1.59,0,2.68.36,3.23,1.08.52.66.62,1.69.32,3.06h-15.26c-6.87,0-10.35,1.12-13.3,4.28-1.27,1.36-2.49,5.38-2.51,7.04-.02,1.67.52,3.07,1.6,4.16,1.53,1.55,4.14,2.4,7.36,2.4h29.4c.15,0,.28-.1.31-.25l4.4-18.47c.54-2.26.04-4.52-1.42-6.36h0Z"/><path class="cls-1" d="m257.89,29.03l-1.05,4.41c-.57,2.4-2.24,3.52-5.27,3.52h-8.71c-1.74,0-3.17-.55-3.93-1.5-.54-.69-.71-1.56-.48-2.53l.98-4.11c.6-2.5,2.43-3.82,5.3-3.82h8.53c1.83,0,3.33.58,4.13,1.58.55.69.72,1.54.5,2.45h0Zm11.06-2.19c.54-2.26.03-4.53-1.43-6.38-1.88-2.37-5.09-3.74-8.81-3.74h-17.11c-5.87,0-10.21,3.45-11.59,9.23l-2.48,10.37c-.43,1.78.02,3.58,1.28,5.18,1.88,2.38,5.35,4.04,8.44,4.04h18.04c2.85,0,5.44-.94,7.5-2.72,1.89-1.63,3.27-3.95,3.88-6.52l2.27-9.48h0Z"/><path class="cls-1" d="m215.88,29.03l-1.05,4.41c-.57,2.4-2.25,3.52-5.27,3.52h-10.56c.93-3.98,1.89-8,2.85-11.96h9.41c1.83,0,3.33.58,4.12,1.58.55.69.72,1.54.5,2.45h0Zm11.45-8.55c-1.88-2.38-5.09-3.75-8.82-3.75h-14.72l1.48-6.17c.02-.1,0-.2-.06-.27-.06-.08-.15-.12-.25-.12h-10.94c-.15,0-.28.1-.31.25-1.16,4.91-2.35,9.9-3.5,14.72-1.56,6.56-3.18,13.35-4.76,20.03-.02.1,0,.2.06.27.06.08.15.12.25.12h29.34c2.85,0,5.44-.94,7.5-2.72,1.89-1.63,3.27-3.95,3.88-6.52l2.27-9.48c.54-2.26.04-4.51-1.42-6.36h0Z"/><path class="cls-1" d="m173.82,38.6h-12.35c-2.29,0-3.63-.3-4.11-.91-.2-.26-.24-.59-.13-1.01.48-1.85,1.89-2.11,3.88-2.11.36,0,.73,0,1.12.02.4,0,.81.02,1.23.02h11.32l-.96,3.99h0Zm-38.25-17.99c-.69,2.06-3.09,3.28-6.43,3.28h-8.08l1.62-6.8h8.51c2.06,0,3.6.5,4.23,1.38.39.55.45,1.27.15,2.13h0Zm-3.46,14.58c-.69,2.05-3.1,3.28-6.43,3.28h-8.09l1.69-7.09h8.51c1.9,0,3.44.56,4.11,1.5.45.62.52,1.4.21,2.32h0Zm54.89-14.72c-1.88-2.38-5.09-3.75-8.82-3.75h-25.04c-.15,0-.28.1-.31.24l-1.52,6.17c-.02.1,0,.2.06.27.06.08.15.12.25.12h21.25c1.59,0,2.68.36,3.23,1.08.52.66.62,1.69.32,3.06h-15.26c-6.87,0-10.35,1.12-13.3,4.28-.63.68-1.25,2.01-1.72,3.38,0-2.77-1.98-5.46-5.54-7.4,4.67-2.88,7.45-6.09,7.64-8.88.15-2.14-.55-4.1-2.01-5.67-2.11-2.26-5.69-3.5-10.07-3.5h-25.2c-.15,0-.28.1-.31.25l-8.34,35.03c-.02.1,0,.2.06.27.06.08.15.12.25.12h26.21c4.42,0,8.14-.7,11.04-2.08,2.62-1.25,4.48-2.99,5.53-5.19-.04.27-.06.51-.06.71-.02,1.67.52,3.07,1.6,4.16,1.53,1.55,4.14,2.4,7.36,2.4h29.4c.15,0,.28-.1.31-.25l4.39-18.47c.54-2.26.04-4.51-1.42-6.36h0Z"/></svg>