<?xml version="1.0" encoding="UTF-8"?><svg id="Layer_1" xmlns="http://www.w3.org/2000/svg" viewBox="0 0 500 347.54"><defs><style>.cls-1,.cls-2{fill:#fff;}.cls-3{fill:#185633;}.cls-3,.cls-4,.cls-2{fill-rule:evenodd;}.cls-4{fill:#d4a55c;}</style></defs><path class="cls-2" d="m330.33,188.46c3.37-1.98,3.34-4.47,3.34-6.79-3.35-53.11-3.35-106.21,0-159.32,0-2.32.05-4.8-3.34-6.79-35.28-20.75-122.95-20.74-158.24,0-3.37,1.98-3.34,4.47-3.34,6.79,3.35,53.11,3.35,106.21,0,159.32,0,2.32-.05,4.8,3.34,6.79,35.28,20.75,122.95,20.74,158.24,0"/><path class="cls-1" d="m500,266.09c0,6.94-1.72,13.4-5.15,19.37-3.45,5.96-8.14,10.72-14.07,14.25-5.94,3.54-12.52,5.31-19.73,5.31s-13.88-1.77-19.92-5.31c-6.04-3.54-10.8-8.31-14.27-14.31-3.47-6.01-5.2-12.55-5.2-19.63,0-5.43,1.03-10.55,3.09-15.32,2.06-4.77,4.95-8.95,8.66-12.5,3.71-3.55,7.93-6.3,12.69-8.24,4.74-1.94,9.7-2.92,14.86-2.92s9.94.93,14.6,2.8c4.67,1.86,8.84,4.55,12.55,8.07,3.71,3.52,6.61,7.69,8.73,12.52,2.11,4.83,3.18,10.13,3.18,15.9m-127.35,36.17h1.01c1.8,0,3.4-.7,4.79-2.13,1.39-1.43,2.1-3.44,2.1-6.01v-55.95c0-3.09-.77-5.24-2.34-6.44-1.56-1.2-3.42-1.84-5.56-1.91v-.86h23.7v.86c-2.08.07-3.93.69-5.53,1.86-1.61,1.18-2.42,3.33-2.42,6.49v54.08c0,3.21.81,5.44,2.42,6.7,1.6,1.24,4.24,1.86,7.9,1.86h6.39c2.78,0,5-.34,6.66-1.01,1.67-.67,2.97-1.68,3.95-3.06.96-1.37,1.96-3.33,2.97-5.84h.84l-2.82,12.18h-44.07v-.81Zm-39.6-39.3h4.83c3.97,0,6.78-.39,8.47-1.2,1.07-.55,2.18-1.27,3.33-2.22,1.17-.94,2.27-2.42,3.33-4.43,1.05-2.01,1.58-4.45,1.58-7.3,0-2.2-.36-4.31-1.07-6.3-.7-1.99-1.72-3.76-3.06-5.31-1.34-1.55-2.94-2.75-4.79-3.62-1.84-.88-3.85-1.31-6.03-1.31-1.92,0-4.1.36-6.59,1.1v30.59Zm7.59,2.27h-7.59v26.71c0,1.79.17,3.26.53,4.47.34,1.19,1.31,2.22,2.89,3.09,1.58.88,4.02,1.3,7.3,1.3,6.82,0,11.66-2.27,14.55-6.78,1.97-3.13,2.97-6.63,2.97-10.53,0-2.82-.5-5.36-1.48-7.64-1-2.28-2.35-4.19-4.09-5.7-1.72-1.53-3.9-2.73-6.51-3.61-2.63-.88-5.48-1.31-8.57-1.31m-55.03-37.18l22.19,63.49c1.17,3.28,2.28,5.67,3.31,7.14,1.05,1.48,2.04,2.41,3.01,2.8.95.38,2.16.64,3.64.77h.75c1.87,0,3.49-.67,4.84-2.04,1.36-1.36,2.04-3.38,2.04-6.1v-55.95c0-2.65-.64-4.71-1.89-6.16-1.25-1.46-2.95-2.18-5.1-2.18h-.91v-.86h24.2c3.19,0,6.11.46,8.81,1.39,2.68.91,4.95,2.18,6.82,3.81,1.85,1.63,3.3,3.47,4.29,5.53,1.01,2.06,1.51,4.31,1.51,6.72,0,4.47-1.44,8.09-4.33,10.87-2.88,2.78-6.75,4.83-11.63,6.13v.21c2.22.24,4.35.58,6.39,1.06,2.06.46,3.9,1.12,5.55,1.96,1.65.84,3.18,1.92,4.62,3.26,1.32,1.22,2.42,2.54,3.33,3.98.91,1.44,1.6,3,2.06,4.71.46,1.68.7,3.42.7,5.2,0,3.85-1,7.18-2.99,9.96-2.01,2.78-4.26,4.89-6.78,6.34-3.59,1.98-8.54,2.97-14.84,2.97h-51.66v-.81c2.49,0,4.4-.24,5.74-.7,1.34-.46,2.01-1.75,2.01-3.83,0-1.13-.31-2.66-.94-4.57-.14-.27-.21-.48-.21-.6l-6.6-19.68h-25.64l-5.89,18.22c-.81,2.47-1.2,4.47-1.2,5.98,0,2.08.52,3.47,1.56,4.16,1.03.69,2.51,1.03,4.41,1.03v.81h-17.4v-.81c2.47-.24,4.47-1.18,5.96-2.85,1.49-1.65,2.8-4.17,3.9-7.56l20.92-63.8h5.43Zm-16.83,42.16h23.58l-12.07-35.17h-.21l-11.3,35.17Zm-57.23-40.39v-.86h24.3c4.05,0,7.64.55,10.73,1.66,3.11,1.1,5.68,2.61,7.75,4.52,2.06,1.92,3.61,4.07,4.64,6.48,1.01,2.39,1.53,4.91,1.53,7.56s-.48,5.08-1.42,7.47c-.96,2.4-2.47,4.53-4.52,6.39-2.04,1.87-4.72,3.35-8.04,4.45-3.33,1.12-7.14,1.67-11.47,1.67-1.37,0-4.04-.21-7.95-.6v25.55c0,5.27,2.68,7.99,8.06,8.16v.81h-23.6v-.81c2.32-.07,4.23-.72,5.72-1.99,1.49-1.25,2.23-3.3,2.23-6.15v-56.06c0-1.7-.27-3.12-.81-4.28-.53-1.13-1.17-1.96-1.89-2.44-.72-.48-1.53-.84-2.4-1.08-.89-.24-1.51-.38-1.84-.45h-1.01Zm15.54,1.75v34.92c2.58.46,5.14.7,7.64.7,4.79,0,8.86-1.24,12.21-3.69,3.33-2.47,5-7.04,5-13.72,0-5.5-1.46-10.01-4.4-13.55-2.94-3.54-7.39-5.31-13.36-5.31-2.32,0-4.67.22-7.09.65m-148.37-3.52l22.19,63.49c1.17,3.28,2.28,5.67,3.31,7.14,1.05,1.48,2.04,2.41,3.01,2.8.94.38,2.15.63,3.61.77,2.05-.11,3.67-.55,4.81-1.34,1.15-.77,1.97-2.22,2.47-4.31.48-2.09.72-5.27.72-9.5v-48.35l-2.47-2.76c-2.18-2.47-3.92-4.05-5.22-4.71-1.31-.65-2.94-1.15-4.88-1.48v-.86h13.93l56.06,62.79v-47.85c0-3.59-.14-6.27-.43-8.06-.27-1.77-1.03-3.19-2.27-4.28-1.22-1.06-3.14-1.65-5.75-1.75v-.86h18.62v.86c-1.87.22-3.37.58-4.45,1.08-1.1.48-1.94,1.44-2.54,2.87-.6,1.43-.91,3.47-.91,6.16v64.99h-.5l-56.92-63.49v45.58c0,3.8.15,6.61.45,8.47.31,1.84.74,3.16,1.32,3.97,1.24,1.75,3.4,2.68,6.48,2.82v.81h-42.68v-.81c2.49,0,4.4-.24,5.74-.7,1.34-.46,2.01-1.75,2.01-3.83,0-1.13-.31-2.66-.95-4.57-.14-.27-.21-.48-.21-.6l-6.59-19.68h-25.64l-5.89,18.22c-.81,2.47-1.2,4.47-1.2,5.98,0,2.08.52,3.47,1.56,4.16,1.03.69,2.51,1.03,4.41,1.03v.81h-17.4v-.81c2.47-.24,4.47-1.18,5.96-2.85,1.49-1.65,2.8-4.17,3.9-7.56l20.92-63.8h5.43Zm-16.83,42.16h23.58l-12.07-35.17h-.21l-11.3,35.17Zm-23.05-27.01h-.81c-.46-3.59-2.04-6.73-4.7-9.43-2.66-2.7-6.18-4.05-10.55-4.05-2.85,0-5.38.67-7.59,2.01-2.22,1.34-3.92,3.18-5.14,5.48-1.2,2.32-1.8,4.98-1.8,7.95,0,2.32.36,4.38,1.08,6.16.72,1.8,1.79,3.38,3.19,4.76,1.41,1.37,3.07,2.66,4.98,3.85,1.91,1.19,4.48,2.7,7.74,4.5,5.43,2.99,9.65,5.96,12.67,8.93,3.02,2.97,4.53,7.04,4.53,12.21,0,3.14-.81,6.2-2.44,9.14-1.63,2.92-4.09,5.34-7.37,7.21-3.3,1.87-7.37,2.82-12.23,2.82-3.06,0-5.75-.33-8.11-.98-2.35-.65-4.72-1.58-7.15-2.75-1.01-.33-1.7-.5-2.06-.5-.7,0-1.17.24-1.39.75-.22.5-.52,1.58-.88,3.26h-.86v-18.57h.86c1.2,5.45,3.56,9.55,7.04,12.33,3.49,2.78,7.73,4.17,12.73,4.17,3.76,0,6.77-.7,9.03-2.11,2.27-1.41,3.83-3.12,4.71-5.13.88-2.01,1.31-4.02,1.31-6.03,0-4.17-1.27-7.56-3.8-10.2-2.52-2.63-6.39-5.32-11.54-8.07-3.55-1.94-6.2-3.45-7.9-4.52-1.72-1.08-3.45-2.47-5.2-4.19-1.77-1.7-3.18-3.73-4.21-6.06-1.05-2.32-1.56-5-1.56-8.02,0-3.49.93-6.82,2.76-10.01,1.85-3.18,4.47-5.74,7.85-7.68,3.38-1.92,7.23-2.88,11.52-2.88,3.25,0,6.6.55,10.01,1.66.53.26,1.25.4,2.16.4,1.1,0,1.85-.76,2.27-2.27h.81v15.85Zm452.31,23.08c0-9.86-1.75-17.57-5.24-23.13-3.49-5.57-7.5-9.29-12.07-11.2-4.57-1.89-8.86-2.83-12.88-2.83-3.12,0-6.35.52-9.72,1.53-3.35,1.03-6.61,2.9-9.79,5.62-3.16,2.71-5.77,6.54-7.81,11.47-2.04,4.93-3.07,11.01-3.07,18.26,0,6.37.84,11.94,2.54,16.68,1.7,4.74,4.02,8.62,6.99,11.61,2.97,3,6.25,5.17,9.82,6.49,3.57,1.32,7.28,1.99,11.15,1.99,3.45,0,6.95-.62,10.49-1.84,3.54-1.22,6.77-3.21,9.7-5.98,2.94-2.78,5.33-6.53,7.15-11.28,1.84-4.74,2.75-10.53,2.75-17.38"/><path class="cls-1" d="m427.93,338.73v1.54h-12.12v7.09h-1.86v-15.31h14.62v1.56h-12.76v5.12h12.12Zm-18.63,8.63h-13.95v-15.31h1.86v13.77h12.1v1.54Zm-33.65-1.54l3.96.07h1.91c1.09,0,2.19-.05,3.29-.16,1.11-.11,1.84-.47,2.2-1.09.36-.62.54-1.55.54-2.79v-3.15c0-.96-.04-1.8-.12-2.51-.08-.71-.24-1.25-.5-1.63-.26-.38-.6-.62-1.02-.73-.42-.12-.85-.19-1.29-.23-.43-.04-.9-.06-1.39-.06l-3.6-.07-3.56.07c-1.74,0-2.89.23-3.44.68-.55.45-.83,1.52-.83,3.21l-.07,2.3v1.13c0,1.94.21,3.24.62,3.93.42.68,1.51,1.03,3.29,1.03m-.4-13.93h6.77c3.18,0,5.22.42,6.12,1.27.9.85,1.34,2.83,1.34,5.93v1.03c0,1.1-.07,2.26-.2,3.48-.13,1.22-.57,2.15-1.31,2.81-.74.66-1.86.99-3.34.99-.46.05-1.04.08-1.76.09-.71.01-1.39.02-2.03.02h-3.83c-.93,0-1.83-.05-2.7-.14-.86-.09-1.59-.26-2.18-.51-.59-.24-1.07-.67-1.45-1.27-.37-.61-.62-1.4-.72-2.36-.11-.97-.16-2.11-.16-3.43,0-1.24.02-2.14.05-2.68.03-.54.16-1.32.38-2.34.22-1.01.76-1.75,1.62-2.21.86-.46,1.99-.69,3.4-.69m-20.65,7.92h9.96l.02,1.36c0,2.37-.35,4.02-1.04,4.97-.7.94-2.24,1.41-4.63,1.41h-6.43c-2.91,0-4.83-.43-5.76-1.3-.93-.86-1.4-2.74-1.4-5.61v-.85c0-2.98.35-5.04,1.06-6.15.7-1.12,2.41-1.67,5.12-1.67l3.86-.05,1.86-.02,3.05.12c1.47,0,2.51.37,3.13,1.1.62.73.93,1.87.93,3.42h-1.84c0-1.35-.28-2.18-.85-2.49-.57-.31-1.62-.47-3.17-.47l-3.12-.02-1.81-.02-3.01.12c-1.16.11-1.99.33-2.47.67s-.72,1.18-.72,2.52l-.09,3.95c0,1.65.12,2.91.36,3.78.24.86,1.47,1.3,3.71,1.3l3.9.05,1.65.02h.34c.7,0,1.63-.05,2.78-.16,1.15-.11,1.87-.47,2.18-1.1.3-.63.46-1.73.46-3.31h-8.03v-1.54Zm-35.73,5.97l4.43.18c1.21,0,2.11-.01,2.71-.03.6-.02,1.25-.08,1.95-.18.7-.1,1.19-.19,1.45-.28.26-.08.5-.28.71-.58l-10.7-5.6c-1.21.14-2.01.45-2.4.93-.39.48-.59,1.37-.59,2.65,0,.96.17,1.66.51,2.1.34.44.98.71,1.93.81m10.26-9.91c0-.91-.19-1.51-.56-1.81-.37-.3-1.02-.45-1.94-.45h-3.21l-1.63-.07-1.61.07c-.66.08-1.13.24-1.42.49-.29.25-.44.7-.44,1.32,0,.57.16,1.03.48,1.39.32.36.77.69,1.35,1l10.54,5.5c.06-.48.09-1.01.09-1.61v-1.63h1.93l.07,1.5c0,.97-.11,1.86-.32,2.66l3.31,1.71-.78,1.45-3.08-1.54c-.34.52-.83.93-1.48,1.22-.65.29-1.63.44-2.95.44h-4.18l-4.45-.12c-1.41,0-2.49-.38-3.25-1.14-.76-.76-1.14-1.87-1.14-3.32,0-1.64.24-2.77.72-3.4.48-.63,1.5-1.03,3.04-1.22-.64-.26-1.1-.62-1.38-1.07-.27-.45-.41-1.04-.41-1.76,0-1.47.42-2.44,1.26-2.9s2.06-.69,3.65-.69h2.04c.67,0,1.33,0,1.97.01.64,0,1.31.04,2.01.1.7.06,1.29.19,1.78.38.49.19.9.48,1.23.87.33.39.52.89.56,1.5.05.61.09,1.2.14,1.77h-1.95v-.68Zm-26.48,2.79v1.54h-12.83v5.62h13.48v1.54h-15.33v-15.31h15.17v1.56h-13.31v5.05h12.83Zm-20.6.07v1.54h-12.12v7.09h-1.86v-15.31h14.62v1.56h-12.76v5.12h12.12Zm-20.3,8.63h-1.86v-15.31h1.86v15.31Zm-6.51,0h-13.96v-15.31h1.86v13.77h12.1v1.54Zm-23.43-15.31l-8.84,8.79v6.52h-1.86v-6.52l-8.81-8.79h2.64l7.09,7.18,7.14-7.18h2.64Zm-24.57,4.43c0-1.19-.28-1.97-.85-2.33-.57-.36-1.5-.54-2.8-.54h-10.22v6.01h10.26c1.35,0,2.28-.21,2.81-.63.53-.42.79-1.26.79-2.51m1.93.12c0,1.38-.2,2.32-.61,2.83-.41.51-1.29.87-2.65,1.07,1.02.14,1.78.39,2.26.75.48.36.72,1.01.72,1.96v4.16h-1.84v-3.4c0-1.13-.24-1.88-.72-2.25-.48-.37-1.32-.55-2.51-.55h-10.45v6.2h-1.86v-15.31h12.46c1.85,0,3.18.31,3.98.93.8.62,1.2,1.82,1.2,3.61m-31.32,10.77v-13.75h-7.71v-1.56h17.33v1.56h-7.76v13.75h-1.86Zm-30.82,0v-15.31h3.1l14.12,13.84v-13.84h1.86v15.31h-3.06l-14.16-13.91v13.91h-1.86Zm-6.19-4.76c0,2.17-.43,3.52-1.3,4.05-.86.53-2.5.8-4.9.8l-3.08.07-4.38-.07c-1.51,0-2.62-.33-3.32-1-.7-.67-1.04-1.76-1.04-3.27v-11.11h1.86v10.85c0,1.22.28,2,.83,2.34.55.34,1.49.51,2.82.51l3.28.12,3.56-.12c1.44,0,2.43-.18,2.98-.53.55-.35.83-1.17.83-2.47v-10.71h1.86v10.53Zm-37.56,3.22l3.96.07h1.91c1.09,0,2.19-.05,3.29-.16,1.11-.11,1.84-.47,2.2-1.09.36-.62.54-1.55.54-2.79v-3.15c0-.96-.04-1.8-.12-2.51-.08-.71-.24-1.25-.51-1.63-.26-.38-.6-.62-1.02-.73-.42-.12-.85-.19-1.29-.23-.44-.04-.9-.06-1.39-.06l-3.6-.07-3.56.07c-1.74,0-2.89.23-3.44.68-.55.45-.83,1.52-.83,3.21l-.07,2.3v1.13c0,1.94.21,3.24.62,3.93.42.68,1.51,1.03,3.29,1.03m-.4-13.93h6.77c3.18,0,5.22.42,6.12,1.27.9.85,1.34,2.83,1.34,5.93v1.03c0,1.1-.06,2.26-.19,3.48-.13,1.22-.57,2.15-1.31,2.81-.74.66-1.86.99-3.34.99-.46.05-1.04.08-1.76.09-.71.01-1.39.02-2.03.02h-3.83c-.93,0-1.83-.05-2.7-.14-.87-.09-1.59-.26-2.18-.51-.59-.24-1.07-.67-1.45-1.27-.37-.61-.62-1.4-.72-2.36-.11-.97-.16-2.11-.16-3.43,0-1.24.02-2.14.05-2.68.03-.54.16-1.32.38-2.34.22-1.01.76-1.75,1.62-2.21.86-.46,1.99-.69,3.4-.69m-15.81,15.52l-3.95.14h-1.7l-3.4-.16c-2.72-.27-4.09-1.74-4.09-4.38l-.09-2.91c0-1.16.01-2.03.03-2.59.02-.57.14-1.35.33-2.36s.68-1.78,1.45-2.3c.77-.52,1.83-.78,3.19-.78.61-.07,1.19-.12,1.73-.14.54-.02,1.18-.03,1.92-.03h2.75c.89,0,1.61.02,2.16.06.55.04,1.27.15,2.17.34.9.19,1.52.68,1.87,1.49.35.8.53,1.88.53,3.23h-1.84v-.14c0-.71-.04-1.29-.13-1.74-.08-.45-.28-.78-.6-.99-.31-.2-.89-.36-1.73-.47-.84-.11-2-.16-3.49-.16-.55,0-1.39.03-2.5.08-1.12.05-1.96.08-2.52.08-1.32.11-2.16.34-2.53.7-.37.36-.6.99-.69,1.88-.09.89-.14,1.7-.16,2.43-.02.73-.02,1.42-.02,2.09,0,1.95.2,3.29.58,4.03.39.74,1.43,1.11,3.11,1.11h7c1.41,0,2.39-.16,2.94-.49.55-.33.83-1.13.83-2.39v-.61h1.93c0,1.94-.31,3.26-.92,3.96-.61.7-2.01,1.04-4.18,1.04"/><path class="cls-4" d="m234.71,47.34c-.2.27-.88.33-1,.02-1.05-2.72-1.69-.54-1.6-3.74,0-.35.82-.25,1.07,0,.25.25-.29.86,0,1.07.87.61,3.88-.57,1.53,2.65m2.71.45c.5.18-.86.76-.93,1.28-.08.51.73.98.53,1.46-.53,1.25-2.25-1.04-2.23-2.08.02-.91,1.78-.97,2.64-.66m-3.71,3.31c3.36-2.24.47,5.4-2.13,2.13-1.27-1.59-.29-.52,2.13-1.07.35-.08-.3-.87,0-1.07m-7.89,4.24c-.47-.78-1.56-2.49-.66-2.64,2.21-.35,1.88.15,1.62,2.66-.03.32-.79.25-.96-.03m-13.44-2.08c.48,2.28-3.41,2.24-2.68-.56.09-.34.82-.25,1.07,0,.25.25-.34.95,0,1.07.53.19,1.5-1.06,1.61-.5m11.49,2.01c-.67-.67.1-1.64.78-.97.67.67-.1,1.64-.78.97m41.33,4.36c.59-2.05,1.88-1.03,1.6,1.07-.07.5-2.08.6-1.6-1.07m-23.48,2.14c-1.23-.82.94-2.67,1.6-1.6.87,1.42-.22,2.53-1.6,1.6m-9.07,0c.11.7-1.56.43-2.13,0-.43-.32-.53-1.59,0-1.6,1.93-.04,1.87-.06,2.13,1.6m-4.8,1.07c-.68-.98-.14-2.67,1.07-2.67,2.93,0,.13,4.39-1.07,2.67m42.69.53c-.49-2.46,3.15-2.69,3.74-1.07.64,1.78-.01,1.16-2.14.53-.54-.16-1.49,1.08-1.6.53m-37.35,1.6c-1.55-1.56,1.25-2.5,3.2-3.2.5-.18-.53,1.57,0,1.6,1.66.11.87-.11,1.6-1.6.16-.32.81-.25,1.07,0,.25.25-.25.81,0,1.07.25.25.95-.34,1.07,0,.19.53-.95,1.27-.5,1.61.7.53,2.98-.82,2.64-.01-.72,1.7-1.24,1.9-3.73,1.6-.35-.04.3-.87,0-1.07-.45-.3-1.33-.46-1.6,0-.46.76.84,2.38,0,2.67-1.98.68-1.97.38-2.13-1.6-.03-.35,1.23.32,1.07,0-.86-1.72-.73.88-2.67-1.07m-2.14,0c-.2.29-.92-.32-1.07,0-.17.36.91.82.58,1.04-1.49.99-3.84-.84-2.69-1.98.96-.95,4.69-1.29,3.18.94m-17.65-.43c-.1,2.79.27,2-1.56,3.1-1.61.97-2.63-1.06-2.6-2.53.02-1.17,4.21-1.76,4.17-.58m8.04,2.57c1.41-1.44.53.2,1.07-2.14.08-.35,1.01-.35,1.07,0,.14.89-1.05,1.83-.64,2.64.75,1.48,2.5-2.64,3.31-2.64,1.37,0,1.78,3.2-.53,3.2-.52,0-2.82-.06-2.63.63.39,1.44,1.15,2.23,3.16,1.5.79-.29.32-1.72,2.13,1.07.29.44-1.07,0-1.6,0-1.65,0-1.1,1.07-3.2,1.07-1.52,0-1.72.02-1.6-1.07.08-.73.76-.35.53-1.07-.32-1-3.81.7-4.24-.65-.79-2.45,2.67-.79,3.71-1.49.33-.22-.81-.78-.53-1.07m64.56-.53c-.67.67-1.74-.4-1.07-1.07.67-.67,1.74.39,1.07,1.07m-46.84.55c3.55-.91.95,1.7,4.68,1.05,1.86-.32-4.08-2.88,3.2-2.23,7.47.66,4.53.11,5.84.15,2.82.07,2.71-1.11,6.43,1.56,1.42,1.02-2.4,2.44-4.8,2.13-.35-.04-.26-.84-.6-.94-3.06-.86-2.82.96-4.2,1.47-.53.19-1.1-.74-1.61-.51-.5.23-.15,1.25-.62,1.53-.58.35-1.5-.37-2.03.04-1.12.85,0,1.23-1.6,1.07-.53-.05.45-1.32,0-1.6-.48-.29-1.65.08-1.56.63.14.96,1.59,1.26,1.98,2.15.21.47-.59,1.02-.39,1.49.14.32,1.17-.33,1.04-.01-.65,1.54-.57,1.95-2.67,1.6-.53-.09.46-1.87,0-1.6-1.25.74.19,1.28-1.07,2.67-2.4,2.66-.25,3.63-2.21,3.23-.52-.11-1.1.98-1.48.61-2.06-1.97,3.6-3.77,1.56-4.9-1.43-.8-1.74,2.93-2.39,2.45-.65-.47-.77-.4-1.87-2.99-.21-.49,0-1.07,0-1.6,0-.79-1.76-2.26-1.6-3.2.15-.87,1.17-1.7,2.05-1.69.58,0-.84,1.29-.42,1.7.49.5,1.55.42,2.1-.01.42-.32-.3-1.16,0-1.6.2-.29.97-.34,1.07,0,.15.54-.87,1.05-.63,1.56.25.54,1.22,1.08,1.66.67.43-.4-.61-1.08-.6-1.66.04-1.1-.31-2.95.75-3.22m-31.3-.49c1.67-.1,1.86.74,1.83,2.07-.04,1.43-3.54-1.97-1.83-2.07m19.97.47c.28-.46,1.58-.53,1.6,0,.18,4.32-3.46,3.1-1.6,0m47.49,0c.35.02.32.91,0,1.07-4.64,2.32-2.85-1.23,0-1.07m-59.76,5.33c-.57-.7,0-2-.64-2.64-.37-.37-.94.91-1.24.48-1.11-1.58-.94.21-2.03-1.63-.46-.78,1.4.07,2.31.08.57,0,1.08-.7,1.62-.52.33.1-.26.8-.01,1.04.25.25.92-.32,1.07,0,.17.36-.91.82-.58,1.04.6.4,1.48-.15,2.18.03.17.04.17.48,0,.53-.51.17-1.38-.49-1.6,0-.3.67-.07,1.95.65,2.1,2.88.6,3.53-1.82,4.69.56h-3.2c-.72.13-1.66,1.23-2.1.65-1.03-1.33-.22-.63-1.1-1.72m63.5-3.73c-.67-.67.39-1.74,1.07-1.07.67.67-.39,1.74-1.07,1.07m-9.6,1.6c-1.44-.83,1.95-3.91,2.18-2.11.21,1.6-1.34,2.46-2.18,2.11m-40.02,2.67c0-1.03-1.27-1.48-.53-1.6,1.67-.28,2.13,1.04,2.13,3.2,0,.89.39,2.46-.48,2.67-3.24.78-1.55-2.15-1.13-4.27m37.35-1.07c.97-.05,1.98.91-1.58,1-.58.01-1.02.8-1.58.7-.83-.15-2.17-.83-2.17-1.7,0-1.09,1.68-.13,2.13-1.07.89-1.85-.11-2.23,1.6-2.13.82.04-1.29,3.35,1.6,3.2m-21.34,3.2c.06-1.98,1.29-1.29,2.13-3.2.51-1.14,2.12,1.09,1.07,2.13-.8.8-3.23,2.19-3.2,1.07m8.76-1.87c.92-1.52,1.82,1.39,2.85.87,3.07-1.57,1.27,2.12-.94,1-1.94-.98-2.25-1.29-1.91-1.87m-2.87,3.4c-.37.09.24.86-.02,1.13-.25.26-.99.35-1.07,0-.16-.71,1.12-1.6.6-2.11-.64-.64-3.11.8-2.73-.02,1.33-2.88,2.24-.38,2.67-.53,1.31-.48,4.85.46.55,1.53m13.32.07c-4.76,1.41-4.8-3.32-.03-.94.28.14.33.85.03.94m-8,1.6c-.35-.03.35-.99,0-1.07-.72-.16-1.4.78-2.11.6-1.02-.26,0-1.57,2.14-1.57.54,0,1.07.64,1.58.44,2.13-.85,1.16,1.84-1.6,1.6m-43.15-.76c1.54,3.3.3,4.05-3.22,1.71-.27-.18-.36-1.03-.05-.96,1.13.27,1.68.13,2.07-.8.14-.33,1.05-.28,1.2.04m9.54,2.36c-2.76,0-.17-3.55,1.07-1.6.44.69-.09,1.6-1.07,1.6m9.46-3.77c1.84-.49,3.11,3.44,2.81,5.9-.04.35-.87.3-1.07,0-.3-.44.5-1.41,0-1.6-.9-.35-2.48,1.38-2.84.49-.61-1.52-.49-4.37,1.1-4.79m12.95,4.83c-1.04-.7.88-1.72,1.6-1.07,2.27,2.06.17,2.67-1.6,1.07m-21.34,2.13c0,.92-1.81,1.45-2.67,1.07-1.96-.87-2.53.12-2.1-2.04.29-1.49,4.77-2.16,4.77.97m-15.26,1.45c-.48-1.08-3.75-.34-1.79-1.47,1.44-.83,2.84-.57,2.91,1.09.02.39-.8,1.11-1.12.38m30.73,3.35c.02.91,2.69-.52,2.69.39,0,2.28-7.03,6.64-6.43,1.74.57-4.69,1.16-1.87,2.67-2.67.46-.24.49.59,0-1.07-.11-.38.94-.2,1.04-.58.14-.53-.79-1.12-.48-1.57.3-.42,4.41-.31,3.17,2.68-.36.88-2.68.11-2.67,1.07m-8.54-1.07c-1.21-.56-.68-.64,0-2.13.44-.97,3.18-1.07,3.2,0,.04,1.86-1.25,3.05-3.2,2.13m-27.22-2.15c.64.71-.62,2.15-1.6,2.15-2.76,0,.17-3.73,1.6-2.15m23.48,4.29c-1.71-2.06-1.26-.55-1.6-3.2-.05-.35.82.25,1.07,0,.25-.25-.32-.91,0-1.07,2.98-1.49,2.13,1.11,2.13,2.67,0,1.48-.82,2.55-1.6,1.6m27.7-2.64c.38-.39,1.18-.32,1.65-.03.58.37-1.98,2.18,4.8,1.6,1.27-.11,1.82.33,1.46,1.3-.54,1.47-1.01-.06-.93,1.37.05.89,2.12-1.06,2.56.22.18.53-1.56,1.59-3.09,2.99-1.06.96.7,3.71-.63,4.25-4.67,1.93-5.77.54-5.78.55-2.07,1.05-1.73.13-3.2.53-1.73.47.3.57-3.2.53-3.67-.04-3.6,2.05-4.77,1.16-.53-.41.71-9.21,1.69-10.2,1.56-1.56,5.02,2.35,6.28-2.7.09-.34.82.25,1.07,0,.25-.25-.35-1,0-1.07.9-.19,1.82.72,2.71.51.38-.09-.9-.73-.62-1.01m8.05,1.04c-.39-.36-1.23.38-1.6,0-.34-.35.54-1.07,1.07-1.07.92,0,1.49,1.51,2.13,2.13.72.7,2.73.5,3.74.53.28.01,1.14-1.32,1.6-1.07.47.26-.46,1.33,0,1.6.76.46,1.84-.33,2.67,0,.33.13.35,1.01,0,1.07-2.41.09-5.69-.71-6.4-1.07-.64-.32-1.72.58-2.14,0-.95-1.33.06-1.1-1.07-2.13m-12.81.53c0,2.66-2.67,1.3-2.67,0,0-1.12,1.48-2.01,2.67-1.6.5.17,0,1.07,0,1.6m-29.35,1.6c.32-.43,1.42-.5,1.6,0,.5,1.36-1.9,2.34.53,4.8.4.4,1.66-1.07,1.61-.5-.17,1.93-1.79.09-3.75,1.57-4.33,3.29,2.4,1.26,3.19,1.51,2.14.68,2.77,1.35,2.47,4.07-.07.66-1.13-.14-1.38-.25-.83-.33-1.85.33-2.67,0-.33-.13-.17-1.26-.52-1.33-1.58-1.09-3.39.26-5.35.26-1.63,0-2.04-.85-3.2-1.07-.38-.07,1.55,1.6-3.2,1.6-.07,0-1.06-.54-1.07-.53-.35.18-.68.74-1.04.58-.93-.42-2.74-1.15-2.28-2.06.75-1.47.26-.65,2.25-.65,1.69,0,2.42,1.03,2.63.63,1.07-2.06.36-1.35,1.64-2.23.33-.22-.91-.82-.58-1.04.6-.4,1.77-.63,2.18-.03.36.53-1.51,1.01-1.14,1.54.54.77,1.8.89,2.72.71.5-.1-1.58-.78-1.13-1.03.96-.52,2.26.23,3.29-.15.33-.12-.34-.95,0-1.07.53-.19,1.21.9,1.61.51.5-.5-.32-1.48-.01-2.11.16-.32.97.34,1.07,0,.15-.54-.81-1.03-.63-1.56.12-.37.98.3,1.17-.04.34-.63-.43-1.56,0-2.13m57.09,2.13c-1.59-.84-2.21.1-2.14-1.6.07-1.44,3.32,1.51,2.14,1.6m-51.22,0c-.11-.34-1.02.35-1.07,0-.24-1.63,3.76-3.29,2.13,3.2-.09.35-.95.34-1.07,0-.34-1.01.34-2.19,0-3.2m8.7.72c1.66,1.69-3.36,8.47-5.5,7.82-1.19-.36,0-2.49,0-3.74,0-4.37,5.79-13.21,5.34-9.07-.16,1.51-1.13,3.67.17,4.99m6.77,8.35c0,2.66-.38.43-3.73,3.74-.52.51-2.02-.43-2.67,0-.3.2-.3.87,0,1.07.44.3,1.75-.51,1.6,0-.74,2.5-1.1,1.78-2.82,3.59-2.05,2.16-.58,4.22-3.45,3.33-1.23-.38-.67-4.87-.67-6.91,0-3.84,4.63-7.17,6.4-10.67.24-.48,1.22.38,1.6,0s-.47-1.35,0-1.6c1.8-.97,2.52-2.7,4.8-2.13.47.12-1.07,6.13-1.07,9.6m26.15-1.48c.65-.35,2.98-.03,2.63.61-.29.53-.17.66-2.63.34-.53-.07-.47-.7,0-.95m7.7,1.44c-.47.18-2.26-.11-2.37-.49-.43-1.52,2.27-2.53,2.67-1.6.36.83.55,1.76-.3,2.09m-71.27-.56c.2-.29,1.1-.19,1.35.06.25.25,0,1.28.35,1.26,2.94-.14,1.39,1.45-.94,1.01-.52-.1-1.05-1.89-.76-2.34m51.29,2.74c-2.02-.52-2.3.38-2.11-1.54.07-.73,1.41-.93,2.09-.66.55.21-.02,1.46.53,1.68.69.28,1.47-.93,2.14-.61,1.45.71-.55,2.64-2.64,2.22-.35-.07.35-1,0-1.09m-29.21.91c-.74,1.18-3.83-.28-3.06-1.44.64-.96,4.29-.51,3.06,1.44m42.02.69c1.73-.84-.06-.17,1.07-2.67.49-1.08.66,1.77,2.13,1.6.56-.06-1.16-1.38-.63-1.56.93-.32,1.87.93,2.85.79,1.93-.29,2.14-1,2.59.77.17.69-1.5-.32-2.13,0-.32.16.36,1.04,0,1.07-.72.07-1.14-2.05-3.17-.42-.41.33-.08,1.24-.54,1.5-.35.2-.66-.6-1.07-.59-.41,0-.68.76-1.07.63-1.95-.71-1.7.23-2.16-1.65-.18-.71,1.4-.78,2.11-.6.37.09-.32,1.3.02,1.13m21.88-1.07c-1.33,2.2-1.93-2.92-1.47-2.64,1.31.82,2.51.91,1.47,2.64m-44.29.53c-1.04-.7.79-1.61,1.6-1.07,1.04.69-.79,1.61-1.6,1.07m-19.21,4.27c-2.32-.62-7.29-1.19-7.74-2.65-.32-1.02,1.88-1.22,2.94-1.08.89.12.47.57,2.14.53,4.34-.09,3.09,3.31,2.67,3.2m21.06-2.68c-.56-.74-.13-1.59.82-1.59,1.82,0,4.11,2.39,3.2,3.73-1.02,1.5-1.42,1.08-2.67,2.14-.55.46-1.44-.14-2.13,0-.93.18,2.21,1.08,2.66,1.05.96-.07,1.72-1.05,2.68-1.05.36,0-.3.87,0,1.07.44.3,1.16.3,1.6,0,.3-.2-.35-1.1,0-1.07.94.08,3.58,2.49,3.1-.43-.08-.5-1.33-.83-.96-1.17,1.46-1.34,4.47-4.28,5.34-2.14,1.8,4.46-2.74-.44-3.2,3.74-.08.76,1.78-1.22,2.67-1.07.78.13.99,1.6.12,2.03-.95.47-1.78-.23-2.79.11-.34.11.35,1,0,1.07-1.58.31-3.23-.39-4.81-.13-7.93,1.33-6.73.01-13.86,1.19-.53.09-1.1-.15-1.63-.05-.28.06-3.59,1.81-3.17.58.85-2.47,4.91-8.22,7.47-8.54.35-.04-.33.94,0,1.07,1.71.65,4.11-1.1,5.22.05.92.95-.28,2.41.57,2.65,1.92.53,3.39-3.77-.21-3.24m5.15,1.59c-.58-.45-1.37-2.29-.66-2.09.18.05,4.31,1.32,2.73,2.11-.62.31-1.52.4-2.07-.02m74.7,28.86c-1.01-37.01-.37-74.01,1.94-111.02,0-2.25.05-4.64-3.2-6.57-33.78-20.07-117.7-20.07-151.48,0-3.22,1.92-3.2,4.32-3.2,6.57,2.79,44.77,3.15,89.55,1.08,134.32,16.95-6.15,34.57-11.25,52.51-15.15.79-5.57,3.16-31.51,1.45-32.72-2.94-2.08-7.41-3.52-10.67-5.87-1.87-1.35.08-1.48,2.17-2.23.04-.01,2.65,1.06,2.63-2.03,0-.35-.87-.3-1.07,0-1.44,2.16-4.35.67-5.34,1.07-.36.14.33,1.05-.04,1.17-.56.17-1.43-.11-1.63-.65-.26-.72,1.21-1.8.57-2.22-.79-.52-2.09.09-2.73.79-.33.36,1.37.48,1.16.92-.23.48-1.07,0-1.6,0-2.15,0-.09.18-1.06.5-.5.17-.83-.34-1.32-.14-3.68,1.5.68,1.44.8,1.84.26.89-.88,2.1-3.22-.07-1.38-1.28-1.75-2.58-2.14-2.67-1.74-.38-3.59.35-5.34,0-.35-.07-.3-.87,0-1.07.44-.29,1.54.53,1.6,0,.16-1.47-.46-1.83-1.6-2.13-.72-.19-.57.53-1.6.53-1.76,0-4.44.48-3.74-2.13.16-.61,3.49.77,4.27-.53,1.09-1.83-2-1.6-3.2-1.6-1.82,0-.67.69-1.07,1.6-.52,1.21-1.38,1.6-2.67,1.6s-3.64,1.24-3.74,0c-.11-1.55,1.45-.61,3.06-1.57.78-.46-1.3-2.72-.39-2.69,1.68.05-.24,1.56,1.6,2.13,1.94.6.51.29,1.07-2.13.12-.51,1.32-1.07,1.6-1.07,1.65,0,1.1,1.07,3.2,1.07s3.35,1.6,3.74,1.6c.78,0,.57-1.09,1.07-1.07,1.3.07.92,1.07,2.67.53,1.46-.45.14-.34,1.66-.94.33-.13,1.76,1.1,2.08.94,1.81-.93-.04.05,1.12-1.97.68-1.19,2.58-1.54,3.91-1.23.68.16.14,2.2,1.37,1.07.38-.35-.41-2.61.53-2.67,1.66-.1-.06,1.62,1.6,1.6,2.44-.03,3.17-1.38.84-2.23-1.48-.54.13-1.65-.86-2.08-.04-.02-1.56.98-3.17.58-.28-.07.5-2.06-.56-1.08-.99.9.48,1.52-2.1,2.15-.41.1-1.91.81-2.14,3.2-.02.18-.48.17-.53,0-.2-.65.11-1.39-.11-2.03-.23-.68-2.56-1.71.64-1.71,1.72,0,2.47-.15,3.2-1.6.16-.32-.82.25-1.07,0-.25-.25-.33-.94,0-1.07.82-.33,1.94.55,2.64.01.45-.35.04-1.53-.52-1.64-.78-.16-1.35.9-2.12,1.1-.69.18-1.59-.16-2.24.11-.47.19-.1.87-.41.93-.55.11-1.09-.7-1.61-.5-2.43.9-.38.2-1.6,1.6-.58.67-1.84-.33-2.67,0-.33.13.33.93,0,1.07-.82.33-1.94-.54-2.64-.01-.62.46-2.95,5.01-4.83,1.61-.96-1.73,1.8-2.4,2.67-4.27.61-1.3,1.23-.04,1.07-1.6-.06-.56-1.69.4-1.69-.17,0-1.74,4.48-.19,4.9-1.43.46-1.35-.74-3.06,0-4.27.22-.36,2.17,1.13,3.2.53.32-.19-1.26-1.53,3.73-1.6.72-.01,2.41.12,2.77-.57.27-.53-1.15-1.56-.57-1.7.93-.22,1.9,1.86,2.6,1.21,1.17-1.09-.34-1.67,1.07-1.6.89.04-.84,2.37,0,2.67,2.31.84,4.1-.64,5.89-1.13.72-.2,1.43.74,2.16.57.35-.08-.73-.63-.54-.94.28-.46,1.06-.93,1.5-.61.6.44.08,1.64.63,2.16.29.27.68-.75,1.04-.58.32.15-.25.82,0,1.07.25.25.91-.32,1.07,0,.32.64-.59,1.74,0,2.14,1.76,1.17,4.99-.03,3.15-1.88-.5-.5-2.99.73-1.87-.78,1.11-1.51-1.95-.57-2.34-1.08-.11-.14-.17-.48,0-.53.5-.17,1.09.17,1.6,0,.17-.06.18-.52,0-.53-2.66-.18-1.56-1.07-2.67-1.07-.88,0-2.9,1.46-3.76,1.65-.39.08-.69-.76-1.04-.58-.76.39.87.53-1.07.53-.53,0-1.33.46-1.6,0-.85-1.43-.22-.66-1.7-1.64-.47-.31.9-1.07.63-1.56-.24-.44-1.1.27-1.5-.04-.46-.35,0-.7-.49-1-.34-.2-.85.14-1.21-.03-.32-.15.27-.83,0-1.07-.29-.26-1.04-.33-1.17.04-.18.53,1.03,1.17.63,1.56-1.08,1.07-1-.16-2.67,0-.53.05.49,1.39,0,1.6-2.73,1.17-6.38.29-1.22-1.11.52-.14.71-1.44.17-1.51-1.12-.14-2.13,1.3-3.22,1.02-2.51-.65-1.69.24-1.58-1.67.04-.73,2.36,1.29,2.11.6-.71-1.98-1.36-.17-2.13-2.13-.21-.52,1.17-.31,1.68-.09.79.33,1.12,1.6,1.97,1.63.64.02,1.03-.66.85-1.28-.15-.51-.87.03-1.31-.26-2-1.33,3.25-3.74-1.6-3.74-.1,0-2.3.36-2.13,0,.69-1.46,1.75.17,2.67-1.6,1.1-2.13-1.46-2.5.53-2.14,1.58.29-.23,1.06,1.07,1.6.03.01-.3-1.98,1.07-1.07.33.22.71.71.53,1.07-.16.32-.87-.3-1.07,0-.3.44-.53,1.57,0,1.6,1.66.11.66-.22,1.64-1.7.31-.47,1.21,1.07,1.56.63,1.6-1.96-.71-3.57-1.07-4.27-.16-.33.74-.13,1.09-.05.38.09.66.68,1.04.58,1.27-.36,1.43-2.61,2.14-1.6,1.25,1.79-.07,2.61,1.07,3.74.49.49,1.53-.41,2.07.02.57.46.88,1.44.6,2.11-.2.47-1.1-.21-1.52.07-.56.36-1.61,1.21-1.11,1.65.57.5,1.41-.81,2.17-.73.63.07,1.19,1.68,1.54,1.14,1.13-1.75,1.56-.53,1.82-2.63.11-.9-2.52-.21-2.35-1.1.27-1.43.81-1.27,2.67-1.07.35.04-.25.82,0,1.07s1,.35,1.07,0c.61-3.12,1.07-1.27,1.07-3.74,0-1.73,2.99-1.42.93-2.52-1.06-.56-.93.34-1.99,1.98-.91,1.4-1.63,1.01-.95-.95.33-.95,2.74-1.55,2.02-2.25-1.46-1.43-.62-1.32-2.57-1.09-.77.09,1.04,1.82.42,2.28-.68.49-1.46-.65-4.25-.65-2.05,0-2.05,2.28-4.33,2.11-.73-.06.76-1.4.6-2.11-.08-.35-.8-.23-1.07,0-.24.21.27.83-.02.95-1.16.5-2.47.81-3.71.65-.37-.05.35-1.06-.02-1.13-.74-.15-1.4.68-2.15.7-.48,0-.94-.63-3.16-.63-.86,0-1.28,1.6-2.14,1.6-.97,0-.51-1.01-1.07-1.6-.37-.39-1.17.32-1.6,0-.31-.23-.33-1.06.04-1.17.55-.17,1.01.67,1.59.68.41,0,.66-.63,1.07-.63.43,0,.68.74,1.1.66.64-.13.93-1.04,1.56-1.19.25-.06,2.96,1.95,3.71-.49.1-.34-1.1.35-1.07,0,.18-2.04-.93-2.21,1.07-2.67,3.38-.78-2.18,1.51,1.38,1.51,1.23,0,.78-1.52,1.28-2.58.23-.48,1.22-.38,1.6,0,.38.38-.47,1.34,0,1.6.46.25,1.32-1.07,1.6-1.07,1.85,0,.67,1.47,3.2,1.6.53.02.38-1.23,0-1.6-.38-.38-1.6.53-1.6,0-.02-1.99.12-1.13,2.02-1.71.72-.22,1.59-2.23,1.72-1.49.28,1.65-1.45,2.23,0,2.67,1.41.42,1.2-1.79,3.18-1.06.85.31-.34,2.83.55,2.66,1.43-.27,1.27-.81,1.07-2.67-.04-.35-1.05.35-1.07,0-.13-2.74-.18-.96,1.07-3.2.9-1.63,3.45,1.35,3.74,1.6.67.58-.56,1.97,0,2.67.31.39,3.11.35,4.27-1.07.34-.41-.42-1.28,0-1.6.59-.44,1.53.45,1.78-.24.6-1.63-3.61-.56-2.31-2.43.17-.25.85-.87.53-1.6-.62-1.44-.84-.88-2.67-2.13-1.04-.71.48-2.67,1.6-2.67,1.78,0,.11,1.84,1.6,2.67,1.85,1.03,1.87-2.05,3.2-3.74.91-1.15,1.01-.53,2.13-.53.97,0,.41,1.13,1.07,1.6.72.52,1.84-.33,2.67,0,.33.13-.25.81,0,1.07.25.25.87.3,1.07,0,.13-.19-.57-3.66,1.6-.53.99,1.42-.5,3.59,2.14,2.67.34-.12.25-.82,0-1.07-.25-.25-.87.29-1.07,0-1.41-2.11,1.46-1.55,1.53-1.62.52-.52-.12-1.96.6-2.11,2.15-.47,2.65,1.76,3.54,3.49.47.92,4.13-.29,3.37,1.89-.38,1.08-1.66-.59-2.06-.58-1.81.04-1.45,1.92-2.59,2.07-1.15.14-1.72.05-1.72,1.66,0,.53.28,1.15,0,1.6-.73,1.21-1.73-1.71-1.68-2.2.07-.64,1.88-1.35.99-1.9-2.22-1.39-2.19,2-5.18-.17-1.74-1.25-.03-2.92-1.6-3.2-.7-.12.06,1.42-.03,2.12-.08.57-.75,1.15-.48,1.66.19.35.96-.96,1.06-.57,1.03,4.25-2.68,2.08-3.3,2.73-.45.47.57,1.31,1.17,1.58.36.16.82-.91,1.04-.58.39.59-.32,1.5,0,2.13.16.32,1.01-.35,1.07,0,.4,2.33-.12,2.13,2.13,2.67.35.08.32.91,0,1.07-.64.32-1.48-.29-2.13,0-1.53.68,2.95,2.31,4.29,1.59.8-.43-1.44-2.47-.55-2.66,1.95-.42-.29,1.25,1.6,2.13,1.71.8,1-2.11,3.01-3.21.3-.16-.09-.64-.1-.98-.01-.39.3-.75.27-1.14-.05-.56-.66-1.07-.5-1.61.31-1.1,1.58.65,1.65,2.7.01.4-.97,1.06-.58,1.04,1.66-.1.58-.3,1.58-1.51.47-.57,2.49-.22,2.16.44-1.47,2.93-5.13,1.51-5.19,3.16-.02.58.78-.5.97.05.4,1.19-1.6,2.99-.58,3.73,1.19.86,1.01-.53,2.13-.53,3.38,0,.83,4.98-2.13,3.2-.46-.27.43-1.28,0-1.6-.57-.43-1.5.32-2.13,0-.32-.16.34-1.17,0-1.07-2.09.63-3.02.03-3.74,2.13-.32.95,3.42-.71,3.74-.53.43.25-.29,2.05,1.07,2.67.51.23,1.6-.53,1.68.02.18,1.28.09,3.31-1.14,3.71-1.55.51-1.27-1.17-1.62.63-.14.72,1.46.67,2.16.44.37-.12-.01-.73.36-.84.61-.18,1.01.75,1.47.31.67-.65-.81-2.39.07-4.42.25-.59,1.68-.47,1.84.15.59,2.29.71,3.83,2.67,2.67,1.41-.83-.76-.64-1.08-2.16-.12-.57,1.33-.05,1.66-.53.23-.33-.87-.77-.59-1.06.67-.68,2.21-.21,2.68-1.05.8-1.42-1.11-5.18.97-5.3.96-.05-.25,4.09.63,5.3,1.21,1.65.09-2.58,1.8-1.46,1.28.84-1.67,1.81-.2,2.52,2.01.98-.43-1.69,2.15-1.6,1.61.06.87,3.23.51,4.81-.12.52-1.07,0-1.6,0-1.44,0-2.25-1.69-2.67-.53-.73,2.02.53-.05,1.6,1.07,1.17,1.22-1.88,1.69-1.51,3.13.26,1,1.14,1.21,1.51.61.28-.45-.46-1.33,0-1.6.76-.46,2.24-.78,2.67,0,.41.76-2.42,1.49-1.6,1.6,2.9.38,3.27-1.91,5.84-1.61.38.04-1.05,2.39.07,2.26,4.28-.52,3.97-3.4,3.16-3.31-1.52.17-.55,1.39-2.2,1.05-.72-.15,1.11-1.59.6-2.11-1.11-1.13-4.34,1.45-4.84-1.62-.14-.84.34-3.39.57-3.71.64-.89,1.07-.08,1.07-1.6,0-.89-.33-1.84,0-2.67.13-.33.99-.35,1.07,0,.35,1.57.52,6.64,3.25,3.71.28-.3-.97-1.02-.57-1.09,1.24-.2,2.59.05,3.73.58.35.16-.33,1.04.04,1.17.53.18,1.05-.87,1.56-.63,1.32.61.92.4,2.67,1.07.52.2-.48,1.42.02,1.67.65.33,2.05-1.33,2.11-.6.14,1.54-1.07,1.4,1.07,1.6.35.03-.35-1,0-1.07.54-.1,1.07.35,1.07,1.07,0,2.55-2.48.27-2.64,3.62-.03.73,1.51,1.07,2.1.65.58-.41-.65-2.41,0-2.13,2.64,1.12-.51,1.54,2.14,2.67.65.28-.62-1.78,0-2.13,1.09-.62,2.96-.96,3.76,0,.72.86-.57,2.2-1.1,3.19-.65,1.24-.19.4-1.6,1.07-.32.15-.32.91,0,1.07,1.49.73.47.38,1.6,1.6.73.78,2.19-.34,3.2,0,.34.11-.36,1.1,0,1.07,2.04-.18.62-1.14,2.67-1.07.7.02-1.93,2.67-2.67,2.67-2,0-3.87-2.69-5.84-2.68-.56,0,1.03,1.82.5,1.61-1.95-.78-.74-1.75-3.2-1.6-.35.02.35.99,0,1.07-2.69.57-4.23,2.01-6.42,2.13-.93.05.9-1.91.51-2.76-.22-.49-.96.72-1.48.61-.46-.1-.17-2.2-2.66-.43-2.14,1.53-1.43,2.29-1.69,3.12-.25.79-1.5,1.57-1.04,2.25.46.68.47-.63,3.7-.65,2.02-.01,3.91-1.97,3.74-1.07-.55,2.81-3.02,1.83-4.3,2.09-1.45.29.31.58-3.71.58l-3.17.4c-2.05.22-1.35,1.21-1.03,1.03.56-.31.99.58-.07.7-.35.04-.83-.27-1.07,0-.26.29-.33,1.04.04,1.17.53.18,1.66-1.19,1.56-.63-.5,2.77-1.85-.59-1.58,2.8.09,1.09,2.1-.7,3.2-.73.73-.02,1.45.91,2.11.6.48-.23-.41-1.26,0-1.6.52-.44,1.39.11,2.03-.11.48-.16.78-.65,1.17-.96.45-.36.55,2.5.51,2.66-.23.93-1.52,1.85-1.04,2.68.71,1.22,1.45.58,3.2,1.07.34.09-.34.93,0,1.04.54.17,1.13-.78,1.64-.51.5.26-.02,1.82.5,1.61,2.05-.81.3-1.58.03-4.31-.03-.34.64.28.98.29.55,0,1.28-.67,1.63-.25.36.43-.69,1.08-.5,1.61.12.34,1.22-.32,1.07,0-.89,1.9-1.75.74-1.6,3.2.02.35.82-.25,1.07,0,.25.25-.31,1.23,0,1.07,1.9-1-.48-.39.53-2.67.62-1.4.74.22,2.13,1.07.47.29-.36,1.26.03,1.65.28.28,1.06-.97,1.04-.58-.09,1.63-2.5,1.6-1.07,2.13,3.26,1.22.56-1.37,3.27-1.58.73-.06-.91,1.45-.6,2.11.23.48,1.22.38,1.6,0,.38-.38-.3-1.16,0-1.6.2-.3.81.24,1.07,0,1.4-1.32-2.7-1.19-3.12-1.62-.75-.77.17-2.45-.61-3.18-.69-.65-2.46.82-2.83-.05-.51-1.19,2.41-3.16,1.23-3.69-1.87-.83-.63.89-2.59,1.04-1.22.1-.2-4.88,1.52-3.71.47.32-.48,1.46.03,1.72l3.17-.65c.34,0,.76.19,1.03-.03.7-.56.8-2.39,1.64-2.11.84.29-.34,1.85,0,2.67.15.35,1.04-.35,1.13.02.18.71-1.33,2.06-.6,2.11,4.05.28-.57-2.55,3.2-1.07,2.24.88-4.02,2.01.53,4.8,2.12,1.3,3.15-.17,2.67-2.13-.17-.69-2.1.71-2.13,0-.1-1.81,4.8-3.52,4.8-.53,0,.53-.44,1.3,0,1.6.2.13,2.93,4.15,3.74.53.42-1.88-.63-.25-2.14-1.6-1.73-1.55,1.05-3.04,2.67-1.6.79.71-1.16,2.64,1.63,2.71.4.01.65-.66,1.05-.61.82.11,1.54,1.52,2.24,1.07.61-.4-1.37-1.95-.65-2.1,2.43-.53.15.61,2.13,1.07,2.07.48,2.19-1.23,2.67.53.12.44-3.33-.75-2.67,1.6.45,1.59.94,3.34,2.73,3.18.73-.06-1.33-2.14-.6-2.11,1.32.04,3.23,1.32,2.67,2.67-.41.99-2.14,0-3.2,0-.37,0-.92.33-1.1.01-1.14-2.05-1.93-1.81-2.1-1.08-.26,1.06-.08,1.07-1.6,1.07-.71,0-2.21.71-2.13,0,.16-1.52,2.63-1.66,1.07-2.13-2.61-.79.24-.28-2.14,1.07-.46.26.46,1.33,0,1.6-.76.46-2.24.78-2.67,0-.41-.76,1.14-2.03.35-2.25-1.9-.53-.63,1.04-1.51,2.68-.44.82-1.59,1.32-2.13.56-.51-.73,1.86-2.38,1-2.57-3.31-.71-2.1,1.31-4.11,3.72-1.5,1.8-2.86-2.14-3.74-2.14-1.2,0-.16-.69-1.13.56-.47.6,0,1.77.64,2.21.47.33,1.07-.88,1.59-.64.93.43-1.24,1.96,2.67,1.62.56-.05-.06-1.57.5-1.61,1.57-.12,2,.4,2.67,1.6.26.47-1.07,0-1.6,0-1.5,0-1.3.08-1.6,1.07-.1.34.82-.25,1.07,0,1.34,1.37-1.35,1.32-2.67.53-.3-.18.35-.99,0-1.04-5.42-.85-2.42,2.11-2.67,2.64-.23.48-1.16.3-1.6,0-.31-.21.15-.79-.03-1.11-1.03-1.93-2.7-.92-2.11-3.69.07-.35.81-.25,1.07,0,.25.25-.36,1.07,0,1.07,1.6-.02,1.62.33,1.54-.92-.13-1.82-6.39-1.21-7.41-1.21-1.77,0-1.11-1.07-2.13-1.07-2.04,0-.08.1-1.63.58-.38.12-.65-.5-1.04-.58-.53-.1-1.09.07-1.63.05-.64-.02-1.63-1.51-3.69-.53-1.27.6-4.52.89-4.48,3.99,0,.53-.1.85.2,1.3.2.29.82.25,1.07,0,.8-.79-2.45-.62,4.29-2.2.73-.17,1.4.63,2.14.64,4.34.09,3.05,1.82,2.64,2.09-1.35.86-3.24-.35-4.8,0-.35.08-.32.91,0,1.07.74.37,2.7-.54,3.23-.01.4.4-.01,1.83.5,1.61,2.22-.93.05-1.96,3.2-2.67,1.91-.43,2.51,1.07,4.8,1.07.71,0,1.5-.32,2.14,0,.32.16.35,1.04,0,1.08-1.42.18-2.98-1.18-4.27-.55-.8.4-.72,2.15,0,2.67,1.01.72,2.6-.52,3.73,0,.52.24-.52,1.55.03,1.73,1.02.34,2.19-1.11,3.18-.66.64.3-.59,1.74,0,2.13.89.59,3.37,1.06,3.2,0-.39-2.47-3.06-1.97-3.74-3.74-.19-.5,1.07,0,1.6,0,1.97,0,.82-.81,1.06-2.1.09-.51,1,.5,1.51.4.49-.1.68-1.05,1.17-.96.39.07-.35,1.09.03,1.18.71.18,2.01-1.38,2.1-.65.24,1.89-1.07,1.41-1.07,2.13,0,.78.66,1.41,1.16,1.09.62-.39-.25-1.91.44-2.16,2.25-.82.83-.86,2.56-1.57.84-.34,1.09,1.85.64,2.64-.35.62-1.57-.43-2.14,0-.43.32.3,1.16,0,1.6-.2.3-.87-.3-1.07,0-.57.86.48,2.62,1.07,1.6.88-1.52,2.63-1.9,4.31-2.7.34-.16-.48-.64-.49-1.01-.04-3.16,2.15-2.62,2.04-2.16-.37,1.48-1.58.6-1.04,2.25.28.86,2.35-1.51,2.64-.65.52,1.55.16,1.2-1.1,2.23-.44.36-1.06-.86-1.59-.64-1.79.73.61,2.63,1.62,2.66,1.59.05.55-1.04,4.81-1.04.54,0,3.3-.8,3.73,0,1.02,1.85-1.97,1.6-3.2,1.6-1.77,0-1.94,1-1.57,2.71.08.39,1.02-.97,1.04-.58.13,2.7-1.6,3.15-1.6,3.74,0,1.1,1.8-.12,1.07,2.67-.29,1.09-.67-.42-2.14-1.07-.49-.22.3-1.16,0-1.6-.2-.3-.82.25-1.07,0-.25-.25-.25-.82,0-1.07.2-.2,1.98.43,1.04-.99-.22-.34-1.06-.21-1.04-.61.02-.36.82.25,1.07,0,.25-.25.35-1.09,0-1.07-2.21.15-1.21.36-2.13,1.6-.34.45-1.38-.43-1.7.04-.31.46,1.15,1.33.64,1.54-1,.4-2.18-.86-3.21-.51-.5.17.52,1.49,0,1.6-1.2.26-1.23-.53-2.67-.53-.53,0-1.16.29-1.6,0-.29-.2.24-.8,0-1.07-.22-.24-.89-.34-.97-.02-.18.71,1.02,1.7.44,2.16-1.31,1.03-.9.09-1.6,1.6-.13.29-.83.27-.95-.02-.5-1.15.6-3.65-.65-3.71-2.04-.11-2.66,2.26-5.44,2.03-.5-.04.99-.49,1.17-.96.25-.66-.69-1.96,0-2.13,1.65-.43,1.44,1.32,4.27,0,.32-.15.32-.91,0-1.07-.64-.32-1.7.56-2.14,0-1.13-1.47.95-2.06-1.6-1.6-2,.36.29,1.76-1.6,2.13-.81.16-.12-1.6-1.07-1.6s-1.95.92-2.64.98c-.73.06-1.46-.65-2.16-.44-.34.1-.24.8,0,1.07.22.24.84-.28.99.02,2.45,4.91-.81,2.84-1.52,3.18-.98.48-.43,2.11-3.06.47-.68-.42-.46-1.78-1.2-2.07-.5-.19.43,1.28,0,1.6-.73.54-2.65,1.3-2.69.39-.12-2.14,1.63-.73,1.63-1.99,0-.72-.53-1.17-1.07-1.07-.35.06.34.97,0,1.07-.71.21-1.43-.36-2.16-.44-.88-.1-1.87.33-2.64-.09-.35-.19.84-.74.58-1.04-1.34-1.56-2.84,2.2-2.26,3.16.75,1.25,2.94.19,4.33.64.46.15.49,1.02.98,1.08.77.1,1.46-.62,2.24-.64.56-.02,1.04.44,1.6.53.53.09,1.1-.18,1.6,0,1.12.39,1.57,1.07,3.2,1.07,1.24,0,2.54-.34,3.74,0,.34.1-.35,1.1,0,1.07,2.19-.19,9.4-.69,8.54,2.67-.31,1.19-4.25-.79-4.81-1.02-1.49-.6-6.08-1.36-2.66,1.02h1.6c1.3,0,3.58,1.35,2.67,1.6-2.68.73-2.83-1.22-5.38-1.04-.39.03.97,1.08.58,1.04-2.6-.27-4.59-2.67-6.94-2.67-.53,0-1.22.38-1.6,0-2.13-2.13.27-1.59.63-2.3.29-.57-1.06-.9-1.7-.9-1.01,0-.54,1.33-3.17.93-.94-.15-2.05.06-2.79-.54-.4-.32,2.85-.66-.44-1.45-.53-.13-2.56-.25-2.76.15-.22.44,1.52.58,1.16.92-.52.49-1.42,0-2.13,0-2.07,0-.58,1.56-1.13,2.81-.38.88-1.68-.96-2.6-1.21-.52-.14-1.1.15-1.63.05-1.45-.29.3-.58-3.71-.58-1.72,0-8.24-.32-9.6,0-.76.18-6.29,1.47-6.94,2.13-3.82,3.88-3.6,24.03-3.64,26.59,31.73-6.37,64.35-8.94,96.01-6.82m-35.21-27.79c-.6,1.2-2.65-.15-1.67-2.11.56-1.11,2.16,1.13,1.67,2.11"/><path class="cls-3" d="m326.95,185.64c3.22-1.92,3.2-4.32,3.2-6.57-.75-12.1-1.33-24.19-1.73-36.29-35.19-1.38-74.25,1.95-114.61,10.62-14,3.01-27.59,6.54-40.69,10.52-.25,5.05-.54,10.1-.85,15.15,0,2.25-.05,4.64,3.2,6.57,33.77,20.07,117.7,20.07,151.48,0"/></svg>